<mxfile host="app.diagrams.net" modified="2024-05-28T11:59:15.514Z" agent="Mozilla/5.0 (Windows NT 10.0; Win64; x64) AppleWebKit/537.36 (KHTML, like Gecko) Chrome/125.0.0.0 Safari/537.36" etag="GK0e8OefaHNw6tgVo8ex" version="24.4.9" type="google">
  <diagram name="페이지-1" id="pvsf99_OnHQpUtDJYVuk">
    <mxGraphModel grid="1" page="1" gridSize="10" guides="1" tooltips="1" connect="1" arrows="1" fold="1" pageScale="1" pageWidth="827" pageHeight="1169" math="0" shadow="0">
      <root>
        <mxCell id="0" />
        <mxCell id="1" parent="0" />
        <mxCell id="gzl0_xacBCduGdPaOIgt-85" value="" style="group" connectable="0" vertex="1" parent="1">
          <mxGeometry x="200" y="160" width="1520" height="280" as="geometry" />
        </mxCell>
        <mxCell id="gzl0_xacBCduGdPaOIgt-6" value="StorageDynamicData" style="html=1;whiteSpace=wrap;fontStyle=1" vertex="1" parent="gzl0_xacBCduGdPaOIgt-85">
          <mxGeometry x="40" y="120" width="160" height="40" as="geometry" />
        </mxCell>
        <mxCell id="gzl0_xacBCduGdPaOIgt-23" style="edgeStyle=orthogonalEdgeStyle;rounded=0;orthogonalLoop=1;jettySize=auto;html=1;endArrow=diamondThin;endFill=1;" edge="1" parent="gzl0_xacBCduGdPaOIgt-85" source="gzl0_xacBCduGdPaOIgt-8" target="gzl0_xacBCduGdPaOIgt-6">
          <mxGeometry relative="1" as="geometry" />
        </mxCell>
        <mxCell id="gzl0_xacBCduGdPaOIgt-8" value="PlayerInformation" style="html=1;whiteSpace=wrap;fontStyle=1" vertex="1" parent="gzl0_xacBCduGdPaOIgt-85">
          <mxGeometry x="280" y="120" width="160" height="40" as="geometry" />
        </mxCell>
        <mxCell id="gzl0_xacBCduGdPaOIgt-16" style="edgeStyle=orthogonalEdgeStyle;rounded=0;orthogonalLoop=1;jettySize=auto;html=1;startArrow=diamondThin;startFill=1;endArrow=none;endFill=0;" edge="1" parent="gzl0_xacBCduGdPaOIgt-85" source="gzl0_xacBCduGdPaOIgt-9" target="gzl0_xacBCduGdPaOIgt-12">
          <mxGeometry relative="1" as="geometry" />
        </mxCell>
        <mxCell id="gzl0_xacBCduGdPaOIgt-21" style="edgeStyle=orthogonalEdgeStyle;rounded=0;orthogonalLoop=1;jettySize=auto;html=1;endArrow=diamondThin;endFill=1;" edge="1" parent="gzl0_xacBCduGdPaOIgt-85" source="gzl0_xacBCduGdPaOIgt-9" target="gzl0_xacBCduGdPaOIgt-8">
          <mxGeometry relative="1" as="geometry">
            <Array as="points">
              <mxPoint x="480" y="60" />
              <mxPoint x="480" y="140" />
            </Array>
          </mxGeometry>
        </mxCell>
        <mxCell id="gzl0_xacBCduGdPaOIgt-9" value="PlayerStructureInventoryDataNestedRepository" style="html=1;whiteSpace=wrap;fontStyle=1" vertex="1" parent="gzl0_xacBCduGdPaOIgt-85">
          <mxGeometry x="520" y="40" width="320" height="40" as="geometry" />
        </mxCell>
        <mxCell id="gzl0_xacBCduGdPaOIgt-20" style="edgeStyle=orthogonalEdgeStyle;rounded=0;orthogonalLoop=1;jettySize=auto;html=1;endArrow=diamondThin;endFill=1;" edge="1" parent="gzl0_xacBCduGdPaOIgt-85" source="gzl0_xacBCduGdPaOIgt-10" target="gzl0_xacBCduGdPaOIgt-8">
          <mxGeometry relative="1" as="geometry" />
        </mxCell>
        <mxCell id="gzl0_xacBCduGdPaOIgt-10" value="PlayerStructureModuleInventoryDataRepository" style="html=1;whiteSpace=wrap;fontStyle=1" vertex="1" parent="gzl0_xacBCduGdPaOIgt-85">
          <mxGeometry x="520" y="120" width="320" height="40" as="geometry" />
        </mxCell>
        <mxCell id="gzl0_xacBCduGdPaOIgt-22" style="edgeStyle=orthogonalEdgeStyle;rounded=0;orthogonalLoop=1;jettySize=auto;html=1;endArrow=diamondThin;endFill=1;" edge="1" parent="gzl0_xacBCduGdPaOIgt-85" source="gzl0_xacBCduGdPaOIgt-11" target="gzl0_xacBCduGdPaOIgt-8">
          <mxGeometry relative="1" as="geometry">
            <Array as="points">
              <mxPoint x="480" y="220" />
              <mxPoint x="480" y="140" />
            </Array>
          </mxGeometry>
        </mxCell>
        <mxCell id="gzl0_xacBCduGdPaOIgt-11" value="PlacedObjectDataRepository" style="html=1;whiteSpace=wrap;fontStyle=1" vertex="1" parent="gzl0_xacBCduGdPaOIgt-85">
          <mxGeometry x="520" y="200" width="200" height="40" as="geometry" />
        </mxCell>
        <mxCell id="gzl0_xacBCduGdPaOIgt-12" value="PlayerStructureInventoryDataRepository" style="html=1;whiteSpace=wrap;fontStyle=1" vertex="1" parent="gzl0_xacBCduGdPaOIgt-85">
          <mxGeometry x="920" y="40" width="280" height="40" as="geometry" />
        </mxCell>
        <mxCell id="gzl0_xacBCduGdPaOIgt-18" style="edgeStyle=orthogonalEdgeStyle;rounded=0;orthogonalLoop=1;jettySize=auto;html=1;endArrow=diamondThin;endFill=1;" edge="1" parent="gzl0_xacBCduGdPaOIgt-85" source="gzl0_xacBCduGdPaOIgt-13" target="gzl0_xacBCduGdPaOIgt-10">
          <mxGeometry relative="1" as="geometry" />
        </mxCell>
        <mxCell id="gzl0_xacBCduGdPaOIgt-13" value="PlayerStructureInventoryData" style="html=1;whiteSpace=wrap;fontStyle=1" vertex="1" parent="gzl0_xacBCduGdPaOIgt-85">
          <mxGeometry x="1280" y="120" width="200" height="40" as="geometry" />
        </mxCell>
        <mxCell id="gzl0_xacBCduGdPaOIgt-17" style="edgeStyle=orthogonalEdgeStyle;rounded=0;orthogonalLoop=1;jettySize=auto;html=1;endArrow=diamondThin;endFill=1;" edge="1" parent="gzl0_xacBCduGdPaOIgt-85" source="gzl0_xacBCduGdPaOIgt-14" target="gzl0_xacBCduGdPaOIgt-12">
          <mxGeometry relative="1" as="geometry" />
        </mxCell>
        <mxCell id="gzl0_xacBCduGdPaOIgt-14" value="PlayerStructureInventoryData" style="html=1;whiteSpace=wrap;fontStyle=1" vertex="1" parent="gzl0_xacBCduGdPaOIgt-85">
          <mxGeometry x="1280" y="40" width="200" height="40" as="geometry" />
        </mxCell>
        <mxCell id="gzl0_xacBCduGdPaOIgt-19" style="edgeStyle=orthogonalEdgeStyle;rounded=0;orthogonalLoop=1;jettySize=auto;html=1;endArrow=diamondThin;endFill=1;" edge="1" parent="gzl0_xacBCduGdPaOIgt-85" source="gzl0_xacBCduGdPaOIgt-15" target="gzl0_xacBCduGdPaOIgt-11">
          <mxGeometry relative="1" as="geometry" />
        </mxCell>
        <mxCell id="gzl0_xacBCduGdPaOIgt-15" value="PlacedObjectData" style="html=1;whiteSpace=wrap;fontStyle=1" vertex="1" parent="gzl0_xacBCduGdPaOIgt-85">
          <mxGeometry x="920" y="200" width="200" height="40" as="geometry" />
        </mxCell>
        <mxCell id="gzl0_xacBCduGdPaOIgt-24" value="&lt;span style=&quot;&quot;&gt;&lt;font style=&quot;font-size: 20px;&quot;&gt;StorageDynamicData&lt;/font&gt;&lt;/span&gt;" style="shape=umlFrame;whiteSpace=wrap;html=1;pointerEvents=0;width=280;height=60;fontStyle=1" vertex="1" parent="gzl0_xacBCduGdPaOIgt-85">
          <mxGeometry width="1520" height="280" as="geometry" />
        </mxCell>
        <mxCell id="gzl0_xacBCduGdPaOIgt-86" value="" style="group" connectable="0" vertex="1" parent="1">
          <mxGeometry x="200" y="520" width="1280" height="280" as="geometry" />
        </mxCell>
        <mxCell id="gzl0_xacBCduGdPaOIgt-27" value="StorageStaticData" style="html=1;whiteSpace=wrap;fontStyle=1" vertex="1" parent="gzl0_xacBCduGdPaOIgt-86">
          <mxGeometry x="40" y="120" width="160" height="40" as="geometry" />
        </mxCell>
        <mxCell id="gzl0_xacBCduGdPaOIgt-28" style="edgeStyle=orthogonalEdgeStyle;rounded=0;orthogonalLoop=1;jettySize=auto;html=1;startArrow=diamondThin;startFill=1;endArrow=none;endFill=0;" edge="1" parent="gzl0_xacBCduGdPaOIgt-86" source="gzl0_xacBCduGdPaOIgt-30" target="gzl0_xacBCduGdPaOIgt-35">
          <mxGeometry relative="1" as="geometry" />
        </mxCell>
        <mxCell id="gzl0_xacBCduGdPaOIgt-29" style="edgeStyle=orthogonalEdgeStyle;rounded=0;orthogonalLoop=1;jettySize=auto;html=1;endArrow=diamondThin;endFill=1;" edge="1" parent="gzl0_xacBCduGdPaOIgt-86" source="gzl0_xacBCduGdPaOIgt-30" target="gzl0_xacBCduGdPaOIgt-27">
          <mxGeometry relative="1" as="geometry">
            <Array as="points">
              <mxPoint x="240" y="60" />
              <mxPoint x="240" y="140" />
            </Array>
          </mxGeometry>
        </mxCell>
        <mxCell id="gzl0_xacBCduGdPaOIgt-30" value="UIStructureDataGroupRepository" style="html=1;whiteSpace=wrap;fontStyle=1" vertex="1" parent="gzl0_xacBCduGdPaOIgt-86">
          <mxGeometry x="280" y="40" width="320" height="40" as="geometry" />
        </mxCell>
        <mxCell id="gzl0_xacBCduGdPaOIgt-31" style="edgeStyle=orthogonalEdgeStyle;rounded=0;orthogonalLoop=1;jettySize=auto;html=1;endArrow=diamondThin;endFill=1;" edge="1" parent="gzl0_xacBCduGdPaOIgt-86" source="gzl0_xacBCduGdPaOIgt-32" target="gzl0_xacBCduGdPaOIgt-27">
          <mxGeometry relative="1" as="geometry" />
        </mxCell>
        <mxCell id="gzl0_xacBCduGdPaOIgt-32" value="BuildSystemStructureDataGroupRepository" style="html=1;whiteSpace=wrap;fontStyle=1" vertex="1" parent="gzl0_xacBCduGdPaOIgt-86">
          <mxGeometry x="280" y="120" width="320" height="40" as="geometry" />
        </mxCell>
        <mxCell id="gzl0_xacBCduGdPaOIgt-33" style="edgeStyle=orthogonalEdgeStyle;rounded=0;orthogonalLoop=1;jettySize=auto;html=1;endArrow=diamondThin;endFill=1;" edge="1" parent="gzl0_xacBCduGdPaOIgt-86" source="gzl0_xacBCduGdPaOIgt-34" target="gzl0_xacBCduGdPaOIgt-27">
          <mxGeometry relative="1" as="geometry">
            <Array as="points">
              <mxPoint x="240" y="220" />
              <mxPoint x="240" y="140" />
            </Array>
          </mxGeometry>
        </mxCell>
        <mxCell id="gzl0_xacBCduGdPaOIgt-34" value="BuildingSystemStructureFloorDataRepository" style="html=1;whiteSpace=wrap;fontStyle=1" vertex="1" parent="gzl0_xacBCduGdPaOIgt-86">
          <mxGeometry x="280" y="200" width="320" height="40" as="geometry" />
        </mxCell>
        <mxCell id="gzl0_xacBCduGdPaOIgt-35" value="UIStructureDataGroup" style="html=1;whiteSpace=wrap;fontStyle=1" vertex="1" parent="gzl0_xacBCduGdPaOIgt-86">
          <mxGeometry x="680" y="40" width="200" height="40" as="geometry" />
        </mxCell>
        <mxCell id="gzl0_xacBCduGdPaOIgt-36" style="edgeStyle=orthogonalEdgeStyle;rounded=0;orthogonalLoop=1;jettySize=auto;html=1;endArrow=diamondThin;endFill=1;" edge="1" parent="gzl0_xacBCduGdPaOIgt-86" source="gzl0_xacBCduGdPaOIgt-37" target="gzl0_xacBCduGdPaOIgt-32">
          <mxGeometry relative="1" as="geometry" />
        </mxCell>
        <mxCell id="gzl0_xacBCduGdPaOIgt-37" value="BuildingSystemStructureDataGroup" style="html=1;whiteSpace=wrap;fontStyle=1" vertex="1" parent="gzl0_xacBCduGdPaOIgt-86">
          <mxGeometry x="680" y="120" width="240" height="40" as="geometry" />
        </mxCell>
        <mxCell id="gzl0_xacBCduGdPaOIgt-40" style="edgeStyle=orthogonalEdgeStyle;rounded=0;orthogonalLoop=1;jettySize=auto;html=1;endArrow=diamondThin;endFill=1;" edge="1" parent="gzl0_xacBCduGdPaOIgt-86" source="gzl0_xacBCduGdPaOIgt-41" target="gzl0_xacBCduGdPaOIgt-34">
          <mxGeometry relative="1" as="geometry" />
        </mxCell>
        <mxCell id="gzl0_xacBCduGdPaOIgt-41" value="BuildingSystemStructureFloorData" style="html=1;whiteSpace=wrap;fontStyle=1" vertex="1" parent="gzl0_xacBCduGdPaOIgt-86">
          <mxGeometry x="680" y="200" width="240" height="40" as="geometry" />
        </mxCell>
        <mxCell id="gzl0_xacBCduGdPaOIgt-42" value="&lt;span style=&quot;font-size: 20px;&quot;&gt;StorageStaticData&lt;/span&gt;" style="shape=umlFrame;whiteSpace=wrap;html=1;pointerEvents=0;width=200;height=60;fontStyle=1" vertex="1" parent="gzl0_xacBCduGdPaOIgt-86">
          <mxGeometry width="1280" height="280" as="geometry" />
        </mxCell>
        <mxCell id="gzl0_xacBCduGdPaOIgt-44" style="edgeStyle=orthogonalEdgeStyle;rounded=0;orthogonalLoop=1;jettySize=auto;html=1;endArrow=diamondThin;endFill=1;" edge="1" parent="gzl0_xacBCduGdPaOIgt-86" source="gzl0_xacBCduGdPaOIgt-43" target="gzl0_xacBCduGdPaOIgt-37">
          <mxGeometry relative="1" as="geometry" />
        </mxCell>
        <mxCell id="gzl0_xacBCduGdPaOIgt-43" value="BuildingSystemStructureData" style="html=1;whiteSpace=wrap;fontStyle=1" vertex="1" parent="gzl0_xacBCduGdPaOIgt-86">
          <mxGeometry x="1000" y="120" width="240" height="40" as="geometry" />
        </mxCell>
        <mxCell id="gzl0_xacBCduGdPaOIgt-87" value="" style="group" connectable="0" vertex="1" parent="1">
          <mxGeometry x="200" y="880" width="1000" height="280" as="geometry" />
        </mxCell>
        <mxCell id="gzl0_xacBCduGdPaOIgt-61" value="TemporaryDynamicData" style="html=1;whiteSpace=wrap;fontStyle=1" vertex="1" parent="gzl0_xacBCduGdPaOIgt-87">
          <mxGeometry x="40" y="120" width="160" height="40" as="geometry" />
        </mxCell>
        <mxCell id="gzl0_xacBCduGdPaOIgt-62" style="edgeStyle=orthogonalEdgeStyle;rounded=0;orthogonalLoop=1;jettySize=auto;html=1;endArrow=diamondThin;endFill=1;" edge="1" parent="gzl0_xacBCduGdPaOIgt-87" source="gzl0_xacBCduGdPaOIgt-63" target="gzl0_xacBCduGdPaOIgt-79">
          <mxGeometry relative="1" as="geometry" />
        </mxCell>
        <mxCell id="gzl0_xacBCduGdPaOIgt-63" value="WorldEditorData" style="html=1;whiteSpace=wrap;fontStyle=1" vertex="1" parent="gzl0_xacBCduGdPaOIgt-87">
          <mxGeometry x="520" y="120" width="160" height="40" as="geometry" />
        </mxCell>
        <mxCell id="gzl0_xacBCduGdPaOIgt-65" style="edgeStyle=orthogonalEdgeStyle;rounded=0;orthogonalLoop=1;jettySize=auto;html=1;endArrow=diamondThin;endFill=1;" edge="1" parent="gzl0_xacBCduGdPaOIgt-87" source="gzl0_xacBCduGdPaOIgt-66" target="gzl0_xacBCduGdPaOIgt-63">
          <mxGeometry relative="1" as="geometry">
            <Array as="points">
              <mxPoint x="720" y="60" />
              <mxPoint x="720" y="140" />
            </Array>
          </mxGeometry>
        </mxCell>
        <mxCell id="gzl0_xacBCduGdPaOIgt-66" value="BuildingSystemData" style="html=1;whiteSpace=wrap;fontStyle=1" vertex="1" parent="gzl0_xacBCduGdPaOIgt-87">
          <mxGeometry x="760" y="40" width="200" height="40" as="geometry" />
        </mxCell>
        <mxCell id="gzl0_xacBCduGdPaOIgt-67" style="edgeStyle=orthogonalEdgeStyle;rounded=0;orthogonalLoop=1;jettySize=auto;html=1;endArrow=diamondThin;endFill=1;" edge="1" parent="gzl0_xacBCduGdPaOIgt-87" source="gzl0_xacBCduGdPaOIgt-68" target="gzl0_xacBCduGdPaOIgt-63">
          <mxGeometry relative="1" as="geometry" />
        </mxCell>
        <mxCell id="gzl0_xacBCduGdPaOIgt-68" value="PreviewSystemData" style="html=1;whiteSpace=wrap;fontStyle=1" vertex="1" parent="gzl0_xacBCduGdPaOIgt-87">
          <mxGeometry x="760" y="120" width="200" height="40" as="geometry" />
        </mxCell>
        <mxCell id="gzl0_xacBCduGdPaOIgt-78" value="&lt;span style=&quot;font-size: 20px;&quot;&gt;TemporaryDynamicData&lt;/span&gt;" style="shape=umlFrame;whiteSpace=wrap;html=1;pointerEvents=0;width=280;height=60;fontStyle=1" vertex="1" parent="gzl0_xacBCduGdPaOIgt-87">
          <mxGeometry width="1000" height="280" as="geometry" />
        </mxCell>
        <mxCell id="gzl0_xacBCduGdPaOIgt-81" style="edgeStyle=orthogonalEdgeStyle;rounded=0;orthogonalLoop=1;jettySize=auto;html=1;endArrow=diamondThin;endFill=1;" edge="1" parent="gzl0_xacBCduGdPaOIgt-87" source="gzl0_xacBCduGdPaOIgt-79" target="gzl0_xacBCduGdPaOIgt-61">
          <mxGeometry relative="1" as="geometry" />
        </mxCell>
        <mxCell id="gzl0_xacBCduGdPaOIgt-79" value="IslandSceneData" style="html=1;whiteSpace=wrap;fontStyle=1" vertex="1" parent="gzl0_xacBCduGdPaOIgt-87">
          <mxGeometry x="280" y="120" width="160" height="40" as="geometry" />
        </mxCell>
        <mxCell id="gzl0_xacBCduGdPaOIgt-82" style="edgeStyle=orthogonalEdgeStyle;rounded=0;orthogonalLoop=1;jettySize=auto;html=1;endArrow=diamondThin;endFill=1;" edge="1" parent="gzl0_xacBCduGdPaOIgt-87" source="gzl0_xacBCduGdPaOIgt-80" target="gzl0_xacBCduGdPaOIgt-79">
          <mxGeometry relative="1" as="geometry">
            <Array as="points">
              <mxPoint x="480" y="220" />
              <mxPoint x="480" y="140" />
            </Array>
          </mxGeometry>
        </mxCell>
        <mxCell id="gzl0_xacBCduGdPaOIgt-80" value="CoordinatesDataRepository" style="html=1;whiteSpace=wrap;fontStyle=1" vertex="1" parent="gzl0_xacBCduGdPaOIgt-87">
          <mxGeometry x="520" y="200" width="200" height="40" as="geometry" />
        </mxCell>
        <mxCell id="gzl0_xacBCduGdPaOIgt-84" style="edgeStyle=orthogonalEdgeStyle;rounded=0;orthogonalLoop=1;jettySize=auto;html=1;endArrow=diamondThin;endFill=1;" edge="1" parent="gzl0_xacBCduGdPaOIgt-87" source="gzl0_xacBCduGdPaOIgt-83" target="gzl0_xacBCduGdPaOIgt-80">
          <mxGeometry relative="1" as="geometry" />
        </mxCell>
        <mxCell id="gzl0_xacBCduGdPaOIgt-83" value="CoordinatesData" style="html=1;whiteSpace=wrap;fontStyle=1" vertex="1" parent="gzl0_xacBCduGdPaOIgt-87">
          <mxGeometry x="800" y="200" width="160" height="40" as="geometry" />
        </mxCell>
      </root>
    </mxGraphModel>
  </diagram>
</mxfile>
